<svg id="Layer_1" data-name="Layer 1" xmlns="http://www.w3.org/2000/svg" viewBox="0 0 25 25"><defs><style>.cls-1,.cls-2,.cls-3,.cls-4{fill:none;stroke:#fff;stroke-miterlimit:10;}.cls-2,.cls-4{stroke-linecap:round;}.cls-2,.cls-3{fill-rule:evenodd;}</style></defs><circle class="cls-1" cx="8.95" cy="16.54" r="2.57"/><path class="cls-2" d="M12.54,21.54H5a.64.64,0,0,1-.6-.66v-16A.64.64,0,0,1,5,4.17h2.3"/><path class="cls-2" d="M15.69,4.17h2.42a.64.64,0,0,1,.61.66v8.59"/><path class="cls-3" d="M13.86,2.86h-.77a1.77,1.77,0,0,0-3,0H9.29a.56.56,0,0,0-.54.59v1a.56.56,0,0,0,.54.59h4.57a.56.56,0,0,0,.53-.59v-1A.56.56,0,0,0,13.86,2.86Z"/><line class="cls-4" x1="6.37" y1="7.87" x2="16.81" y2="7.87"/><line class="cls-4" x1="6.37" y1="9.85" x2="16.81" y2="9.85"/><line class="cls-4" x1="6.37" y1="11.83" x2="16.81" y2="11.83"/><line class="cls-4" x1="7.91" y1="16.54" x2="8.6" y2="17.23"/><line class="cls-4" x1="9.98" y1="15.85" x2="8.6" y2="17.23"/><path id="Path_23" data-name="Path 23" class="cls-1" d="M19.31,19.14h-.87A.14.14,0,0,1,18.3,19h0v-.22a2,2,0,0,1,.47-1.19,2,2,0,0,0,.42-1.53,2,2,0,0,0-1.71-1.66,2.06,2.06,0,0,0-1.54.48,2,2,0,0,0-.25,2.65,2.36,2.36,0,0,1,.5,1.39V19a.12.12,0,0,1-.12.13h-.88a1.28,1.28,0,0,0-1.27,1.27h0v.7a.37.37,0,0,0,.37.36h.06v1.18a.36.36,0,0,0,.36.37h5.07a.36.36,0,0,0,.37-.37V21.45h.06a.36.36,0,0,0,.36-.36v-.7A1.27,1.27,0,0,0,19.31,19.14Z"/><line class="cls-1" x1="14.44" y1="21.46" x2="20.08" y2="21.46"/></svg>