<svg width="16" height="15" viewBox="0 0 16 15" fill="none" xmlns="http://www.w3.org/2000/svg">
<path d="M13.3498 2.34375L3.6853 12.0107" stroke="white" stroke-miterlimit="10" stroke-linecap="round"/>
<path d="M1.84863 10.1681L11.0632 0.954138C11.1222 0.894996 11.1923 0.848078 11.2695 0.816066C11.3467 0.784055 11.4295 0.767578 11.513 0.767578C11.5966 0.767578 11.6794 0.784055 11.7566 0.816066C11.8337 0.848078 11.9039 0.894996 11.9629 0.954138L14.7412 3.73313C14.8004 3.79213 14.8474 3.86226 14.8795 3.93948C14.9116 4.0167 14.9281 4.0995 14.9281 4.18313C14.9281 4.26675 14.9116 4.34955 14.8795 4.42678C14.8474 4.504 14.8004 4.57412 14.7412 4.63313L5.52665 13.8501" stroke="white" stroke-miterlimit="10" stroke-linecap="round"/>
<path d="M1.84863 10.1709L5.52759 13.8499" stroke="white" stroke-miterlimit="10" stroke-linecap="round"/>
<path d="M5.52543 13.849L2.17328 14.222C2.07887 14.2323 1.98335 14.2212 1.89377 14.1897C1.80419 14.1581 1.72282 14.1069 1.65567 14.0397C1.58851 13.9725 1.53728 13.8912 1.50575 13.8016C1.47421 13.712 1.46318 13.6164 1.47346 13.522L1.85136 10.168" stroke="white" stroke-miterlimit="10" stroke-linecap="round"/>
</svg>
