<svg viewBox="0 0 100% 100%" fill="none" xmlns="http://www.w3.org/2000/svg" transform="translate(-30 0)">
    <g clip-path="url(#clip0_533_169)">
        <circle cx="58.5" cy="11.5415" r="9" stroke="#5D74AC" stroke-width="5" />
        <circle cx="106.5" cy="11.5415" r="9" stroke="#5D74AC" stroke-width="5" />
        <path fill-rule="evenodd" clip-rule="evenodd" d="M71.0957 20.2662C71.0957 21.776 72.3196 23 73.8295 23C75.3393 23 76.5632 21.776 76.5632 20.2662L76.5632 8.53583L80.6414 12.2653C81.18 12.7579 81.8875 13.0019 82.5934 12.9975C83.3008 13.003 84.01 12.7589 84.5498 12.2653L88.6284 8.53541V20.2663C88.6284 21.7761 89.8524 23 91.3622 23C92.872 23 94.0959 21.7761 94.0959 20.2663L94.0959 2.73378C94.0959 2.45468 94.0541 2.18535 93.9764 1.93172C93.8728 1.54949 93.6692 1.18526 93.3657 0.873819C92.8665 0.33633 92.1536 3.15623e-05 91.3622 3.15307e-05C90.9677 3.15149e-05 90.5926 0.0836098 90.2539 0.234027C89.94 0.355859 89.646 0.533784 89.3901 0.767804L82.5956 6.98135L75.801 0.767774C75.5462 0.534726 75.2536 0.357307 74.9412 0.235518C74.6015 0.0841423 74.2253 -1.57993e-08 73.8295 0C73.0432 3.13794e-08 72.3345 0.331919 71.8358 0.863279C71.5229 1.18073 71.3147 1.55384 71.2111 1.94537C71.136 2.195 71.0957 2.45967 71.0957 2.73375V20.2662Z" fill="#5D74AC" />
        <path fill-rule="evenodd" clip-rule="evenodd" d="M32.5 23.0415C31.1193 23.0415 30 21.9222 30 20.5415V2.5415C30 1.16079 31.1193 0.0415039 32.5 0.0415039C33.8807 0.0415039 35 1.16079 35 2.5415L35 9.4841C35.0539 9.44495 35.109 9.40821 35.1652 9.37389L43.7298 0.809278C44.7061 -0.167033 46.289 -0.167031 47.2653 0.80928C48.2416 1.78559 48.2416 3.3685 47.2653 4.34481L40.0521 11.558L47.2653 18.7713C48.2416 19.7476 48.2416 21.3305 47.2653 22.3068C46.289 23.2831 44.7061 23.2831 43.7298 22.3068L35 13.577L35 20.5415C35 21.9222 33.8807 23.0415 32.5 23.0415Z" fill="#5D74AC" />
    </g>

</svg>