<svg width="1399" height="250" viewBox="0 0 1399 250" fill="none" xmlns="http://www.w3.org/2000/svg">
    <g clip-path="url(#clip0_533_133)">
        <rect width="1399" height="250" fill="white" />
        <rect width="18" height="5" rx="2.5" fill="#EE6969" />
        <path d="M13 2.5C13 1.11929 14.1193 0 15.5 0H22.5C23.8807 0 25 1.11929 25 2.5V2.5C25 3.88071 23.8807 5 22.5 5H15.5C14.1193 5 13 3.88071 13 2.5V2.5Z" fill="#ED9A9A" fill-opacity="0.8" />
        <path d="M8.5 8.5C8.5 7.11929 9.61929 6 11 6H22.5C23.8807 6 25 7.11929 25 8.5V8.5C25 9.88071 23.8807 11 22.5 11H11C9.61929 11 8.5 9.88071 8.5 8.5V8.5Z" fill="#61BD84" />
        <rect y="6" width="13.5" height="5" rx="2.5" fill="#82D8A0" fill-opacity="0.8" />
        <path d="M16 20.5C16 19.1193 17.1193 18 18.5 18H22.5C23.8807 18 25 19.1193 25 20.5V20.5C25 21.8807 23.8807 23 22.5 23H18.5C17.1193 23 16 21.8807 16 20.5V20.5Z" fill="#5D74AC" />
        <rect y="18" width="21" height="5" rx="2.5" fill="#8B9DC9" fill-opacity="0.8" />
        <path d="M6.08105 14.5C6.08105 13.1193 7.20034 12 8.58105 12H22.5C23.8807 12 25 13.1193 25 14.5V14.5C25 15.8807 23.8807 17 22.5 17H8.58105C7.20034 17 6.08105 15.8807 6.08105 14.5V14.5Z" fill="#F4B156" />
        <rect y="12" width="10.8108" height="5" rx="2.5" fill="#EDBD66" fill-opacity="0.8" />
    </g>
    <defs>
        <clipPath id="clip0_533_133">
            <rect width="1399" height="250" fill="white" />
        </clipPath>
    </defs>
</svg>