<svg viewBox="0 0 100% 100%" fill="none" xmlns="http://www.w3.org/2000/svg">
    <g clip-path="url(#clip0_533_169)">

        <rect y="0.0415039" width="18" height="5" rx="2.5" fill="#EE6969" />
        <path d="M13 2.5415C13 1.16079 14.1193 0.0415039 15.5 0.0415039H22.5C23.8807 0.0415039 25 1.16079 25 2.5415V2.5415C25 3.92222 23.8807 5.0415 22.5 5.0415H15.5C14.1193 5.0415 13 3.92222 13 2.5415V2.5415Z" fill="#ED9A9A" fill-opacity="0.8" />
        <path d="M8.5 8.5415C8.5 7.16079 9.61929 6.0415 11 6.0415H22.5C23.8807 6.0415 25 7.16079 25 8.5415V8.5415C25 9.92222 23.8807 11.0415 22.5 11.0415H11C9.61929 11.0415 8.5 9.92222 8.5 8.5415V8.5415Z" fill="#61BD84" />
        <rect y="6.0415" width="13.5" height="5" rx="2.5" fill="#82D8A0" fill-opacity="0.8" />
        <path d="M16 20.5415C16 19.1608 17.1193 18.0415 18.5 18.0415H22.5C23.8807 18.0415 25 19.1608 25 20.5415V20.5415C25 21.9222 23.8807 23.0415 22.5 23.0415H18.5C17.1193 23.0415 16 21.9222 16 20.5415V20.5415Z" fill="#5D74AC" />
        <rect y="18.0415" width="21" height="5" rx="2.5" fill="#8B9DC9" fill-opacity="0.8" />
        <path d="M6.08105 14.5415C6.08105 13.1608 7.20034 12.0415 8.58105 12.0415H22.5C23.8807 12.0415 25 13.1608 25 14.5415V14.5415C25 15.9222 23.8807 17.0415 22.5 17.0415H8.58105C7.20034 17.0415 6.08105 15.9222 6.08105 14.5415V14.5415Z" fill="#F4B156" />
        <rect y="12.0415" width="10.8108" height="5" rx="2.5" fill="#EDBD66" fill-opacity="0.8" />

    </g>

</svg>
