<svg id="Layer_1" data-name="Layer 1" xmlns="http://www.w3.org/2000/svg" viewBox="0 0 25 25">
    <defs>
        <style>.cls-1,.cls-2{fill:none;stroke:#fff;stroke-miterlimit:10;}.cls-2{stroke-linecap:round;}</style>
    </defs>
    <circle class="cls-1" cx="12.38" cy="8.67" r="2.36" />
    <path class="cls-1" d="M16.24,16.92A.78.78,0,0,0,17,16a4.71,4.71,0,0,0-9.25,0,.77.77,0,0,0,.76.91Z" />
    <path class="cls-2" d="M3.65,12.5A8.85,8.85,0,0,1,12.5,3.65" />
    <path class="cls-2" d="M21.35,12.5a8.85,8.85,0,0,1-8.85,8.85" />
    <line class="cls-2" x1="22.5" y1="12.87" x2="21.35" y2="11.72" />
    <line class="cls-2" x1="20.2" y1="12.87" x2="21.35" y2="11.72" />
    <line class="cls-2" x1="2.5" y1="12.29" x2="3.65" y2="13.44" />
    <line class="cls-2" x1="4.8" y1="12.29" x2="3.65" y2="13.44" />
</svg>