<svg id="Layer_1" data-name="Layer 1" xmlns="http://www.w3.org/2000/svg" viewBox="0 0 25 25"><defs><style>.cls-1{fill:none;stroke:#fff;stroke-miterlimit:10;}</style></defs><circle class="cls-1" cx="12.5" cy="9.56" r="2.36"/><path class="cls-1" d="M16.36,17.8a.76.76,0,0,0,.76-.9,4.71,4.71,0,0,0-9.24,0,.76.76,0,0,0,.76.9Z"/><circle class="cls-1" cx="18" cy="11.13" r="1.9"/><path class="cls-1" d="M14.88,17.8h6.24a.62.62,0,0,0,.62-.73A3.82,3.82,0,0,0,18,14a3.75,3.75,0,0,0-2.06.61"/><circle class="cls-1" cx="7" cy="11.13" r="1.9"/><path class="cls-1" d="M9,14.58A3.76,3.76,0,0,0,7,14a3.82,3.82,0,0,0-3.74,3.08.62.62,0,0,0,.62.73h6.24"/></svg>