<svg width="1399" height="250" viewBox="0 0 1399 250" fill="none" xmlns="http://www.w3.org/2000/svg">
<g clip-path="url(#clip0_382_128)">
<rect width="1399" height="250" fill="white"/>
<rect width="18" height="5" rx="2.5" fill="#EE6969"/>
<path d="M13 2.5C13 1.11929 14.1193 0 15.5 0H22.5C23.8807 0 25 1.11929 25 2.5C25 3.88071 23.8807 5 22.5 5H15.5C14.1193 5 13 3.88071 13 2.5Z" fill="#ED9A9A" fill-opacity="0.8"/>
<path d="M8.5 8.5C8.5 7.11929 9.61929 6 11 6H22.5C23.8807 6 25 7.11929 25 8.5C25 9.88071 23.8807 11 22.5 11H11C9.61929 11 8.5 9.88071 8.5 8.5Z" fill="#61BD84"/>
<rect y="6" width="13.5" height="5" rx="2.5" fill="#82D8A0" fill-opacity="0.8"/>
<path d="M16 20.5C16 19.1193 17.1193 18 18.5 18H22.5C23.8807 18 25 19.1193 25 20.5C25 21.8807 23.8807 23 22.5 23H18.5C17.1193 23 16 21.8807 16 20.5Z" fill="#5D74AC"/>
<rect y="18" width="21" height="5" rx="2.5" fill="#8B9DC9" fill-opacity="0.8"/>
<path d="M6.08105 14.5C6.08105 13.1193 7.20034 12 8.58105 12H22.5C23.8807 12 25 13.1193 25 14.5C25 15.8807 23.8807 17 22.5 17H8.58105C7.20034 17 6.08105 15.8807 6.08105 14.5Z" fill="#F4B156"/>
<rect y="12" width="10.8108" height="5" rx="2.5" fill="#EDBD66" fill-opacity="0.8"/>
<path fill-rule="evenodd" clip-rule="evenodd" d="M70.0955 20.2246C70.0955 21.7344 71.3194 22.9583 72.8292 22.9583C74.339 22.9583 75.563 21.7344 75.563 20.2246L75.563 8.49415L79.6412 12.2236C80.1798 12.7162 80.8872 12.9603 81.5932 12.9558C82.3005 12.9613 83.0098 12.7172 83.5495 12.2237L87.6282 8.49374V20.2246C87.6282 21.7344 88.8521 22.9583 90.362 22.9583C91.8718 22.9583 93.0957 21.7344 93.0957 20.2246L93.0957 2.69211C93.0957 2.41301 93.0539 2.14368 92.9762 1.89005C92.8726 1.50781 92.669 1.14359 92.3654 0.832147C91.8662 0.294658 91.1534 -0.0416402 90.362 -0.0416402C89.9674 -0.0416402 89.5924 0.0419381 89.2536 0.192355C88.9398 0.314187 88.6458 0.492113 88.3899 0.726133L81.5954 6.93968L74.8008 0.726102C74.546 0.493054 74.2533 0.315636 73.9409 0.193846C73.6013 0.0424705 73.2251 -0.0416718 72.8292 -0.0416718C72.043 -0.0416717 71.3342 0.290247 70.8355 0.821607C70.5226 1.13905 70.3144 1.51217 70.2109 1.9037C70.1358 2.15333 70.0955 2.41799 70.0955 2.69208V20.2246Z" fill="#5D74AC"/>
<path fill-rule="evenodd" clip-rule="evenodd" d="M31.5 23C30.1193 23 29 21.8807 29 20.5V2.5C29 1.11929 30.1193 0 31.5 0C32.8807 0 34 1.11929 34 2.5L34 9.4426C34.0539 9.40344 34.109 9.3667 34.1652 9.33239L42.7298 0.767774C43.7061 -0.208537 45.289 -0.208535 46.2653 0.767776C47.2416 1.74409 47.2416 3.327 46.2653 4.30331L39.0521 11.5165L46.2653 18.7298C47.2416 19.7061 47.2416 21.289 46.2653 22.2653C45.289 23.2416 43.7061 23.2416 42.7298 22.2653L34 13.5355L34 20.5C34 21.8807 32.8807 23 31.5 23Z" fill="#5D74AC"/>
<circle cx="57.5" cy="11.5" r="9" stroke="#5D74AC" stroke-width="5"/>
<circle cx="105.5" cy="11.5" r="9" stroke="#5D74AC" stroke-width="5"/>
</g>
<defs>
<clipPath id="clip0_382_128">
<rect width="1399" height="250" fill="white"/>
</clipPath>
</defs>
</svg>
